<svg xmlns="http://www.w3.org/2000/svg" viewBox="0 0 400 400" width="400" height="400" shape-rendering="crispEdges"><rect width="400" height="400" fill="#4D7CFF"/><rect x="302" y="302" width="12" height="12" fill="#000000"/><rect x="230" y="218" width="12" height="12" fill="#000000"/><rect x="158" y="170" width="12" height="12" fill="#000000"/><rect x="170" y="158" width="12" height="12" fill="#000000"/><rect x="194" y="122" width="12" height="12" fill="#000000"/><rect x="86" y="86" width="12" height="12" fill="#000000"/><rect x="290" y="278" width="12" height="12" fill="#000000"/><rect x="194" y="230" width="12" height="12" fill="#000000"/><rect x="86" y="194" width="12" height="12" fill="#000000"/><rect x="218" y="158" width="12" height="12" fill="#000000"/><rect x="134" y="194" width="12" height="12" fill="#000000"/><rect x="110" y="86" width="12" height="12" fill="#000000"/><rect x="278" y="290" width="12" height="12" fill="#000000"/><rect x="326" y="182" width="12" height="12" fill="#000000"/><rect x="266" y="122" width="12" height="12" fill="#000000"/><rect x="290" y="86" width="12" height="12" fill="#F2F2F2"/><rect x="158" y="194" width="12" height="12" fill="#000000"/><rect x="290" y="194" width="12" height="12" fill="#000000"/><rect x="170" y="182" width="12" height="12" fill="#000000"/><rect x="194" y="146" width="12" height="12" fill="#000000"/><rect x="86" y="110" width="12" height="12" fill="#000000"/><rect x="194" y="254" width="12" height="12" fill="#000000"/><rect x="218" y="182" width="12" height="12" fill="#000000"/><rect x="242" y="146" width="12" height="12" fill="#000000"/><rect x="254" y="134" width="12" height="12" fill="#000000"/><rect x="182" y="302" width="12" height="12" fill="#000000"/><rect x="278" y="98" width="12" height="12" fill="#F2F2F2"/><rect x="326" y="206" width="12" height="12" fill="#000000"/><rect x="122" y="122" width="12" height="12" fill="#000000"/><rect x="290" y="110" width="12" height="12" fill="#F2F2F2"/><rect x="206" y="302" width="12" height="12" fill="#000000"/><rect x="194" y="62" width="12" height="12" fill="#000000"/><rect x="170" y="206" width="12" height="12" fill="#000000"/><rect x="194" y="170" width="12" height="12" fill="#000000"/><rect x="218" y="206" width="12" height="12" fill="#000000"/><rect x="74" y="182" width="12" height="12" fill="#000000"/><rect x="134" y="134" width="12" height="12" fill="#000000"/><rect x="182" y="326" width="12" height="12" fill="#000000"/><rect x="206" y="218" width="12" height="12" fill="#000000"/><rect x="230" y="182" width="12" height="12" fill="#000000"/><rect x="206" y="326" width="12" height="12" fill="#000000"/><rect x="194" y="86" width="12" height="12" fill="#000000"/><rect x="98" y="290" width="12" height="12" fill="#000000"/><rect x="110" y="278" width="12" height="12" fill="#000000"/><rect x="170" y="230" width="12" height="12" fill="#000000"/><rect x="218" y="230" width="12" height="12" fill="#000000"/><rect x="242" y="194" width="12" height="12" fill="#000000"/><rect x="74" y="206" width="12" height="12" fill="#000000"/><rect x="146" y="146" width="12" height="12" fill="#000000"/><rect x="86" y="302" width="12" height="12" fill="#000000"/><rect x="302" y="182" width="12" height="12" fill="#000000"/><rect x="98" y="98" width="12" height="12" fill="#000000"/><rect x="302" y="290" width="12" height="12" fill="#000000"/><rect x="230" y="206" width="12" height="12" fill="#000000"/><rect x="266" y="194" width="12" height="12" fill="#000000"/><rect x="110" y="194" width="12" height="12" fill="#000000"/><rect x="194" y="110" width="12" height="12" fill="#000000"/><rect x="110" y="302" width="12" height="12" fill="#000000"/><rect x="182" y="158" width="12" height="12" fill="#000000"/><rect x="290" y="302" width="12" height="12" fill="#000000"/><rect x="302" y="98" width="12" height="12" fill="#F2F2F2"/><rect x="278" y="278" width="12" height="12" fill="#000000"/><rect x="302" y="206" width="12" height="12" fill="#000000"/><rect x="314" y="194" width="12" height="12" fill="#000000"/><rect x="206" y="158" width="12" height="12" fill="#000000"/><rect x="110" y="110" width="12" height="12" fill="#000000"/><rect x="122" y="194" width="12" height="12" fill="#000000"/><rect x="170" y="170" width="12" height="12" fill="#000000"/><rect x="182" y="74" width="12" height="12" fill="#000000"/><rect x="158" y="218" width="12" height="12" fill="#000000"/><rect x="182" y="182" width="12" height="12" fill="#000000"/><rect x="218" y="170" width="12" height="12" fill="#000000"/><rect x="278" y="86" width="12" height="12" fill="#F2F2F2"/><rect x="194" y="278" width="12" height="12" fill="#000000"/><rect x="146" y="194" width="12" height="12" fill="#000000"/><rect x="278" y="194" width="12" height="12" fill="#000000"/><rect x="206" y="74" width="12" height="12" fill="#000000"/><rect x="326" y="194" width="12" height="12" fill="#000000"/><rect x="182" y="206" width="12" height="12" fill="#000000"/><rect x="218" y="194" width="12" height="12" fill="#000000"/><rect x="62" y="194" width="12" height="12" fill="#000000"/><rect x="182" y="314" width="12" height="12" fill="#000000"/><rect x="278" y="110" width="12" height="12" fill="#F2F2F2"/><rect x="194" y="302" width="12" height="12" fill="#000000"/><rect x="254" y="254" width="12" height="12" fill="#000000"/><rect x="206" y="206" width="12" height="12" fill="#000000"/><rect x="230" y="170" width="12" height="12" fill="#000000"/><rect x="206" y="314" width="12" height="12" fill="#000000"/><rect x="98" y="278" width="12" height="12" fill="#000000"/><rect x="182" y="230" width="12" height="12" fill="#000000"/><rect x="74" y="194" width="12" height="12" fill="#000000"/><rect x="194" y="218" width="12" height="12" fill="#000000"/><rect x="86" y="182" width="12" height="12" fill="#000000"/><rect x="194" y="326" width="12" height="12" fill="#000000"/><rect x="86" y="290" width="12" height="12" fill="#000000"/><rect x="98" y="86" width="12" height="12" fill="#000000"/><rect x="302" y="278" width="12" height="12" fill="#000000"/><rect x="206" y="230" width="12" height="12" fill="#000000"/><rect x="230" y="194" width="12" height="12" fill="#000000"/><rect x="98" y="194" width="12" height="12" fill="#000000"/><rect x="110" y="290" width="12" height="12" fill="#000000"/><rect x="158" y="182" width="12" height="12" fill="#000000"/><rect x="194" y="134" width="12" height="12" fill="#000000"/><rect x="86" y="98" width="12" height="12" fill="#000000"/><rect x="290" y="290" width="12" height="12" fill="#000000"/><rect x="194" y="242" width="12" height="12" fill="#000000"/><rect x="86" y="206" width="12" height="12" fill="#000000"/><rect x="302" y="86" width="12" height="12" fill="#F2F2F2"/><rect x="242" y="242" width="12" height="12" fill="#000000"/><rect x="302" y="194" width="12" height="12" fill="#000000"/><rect x="314" y="182" width="12" height="12" fill="#000000"/><rect x="98" y="110" width="12" height="12" fill="#000000"/><rect x="110" y="98" width="12" height="12" fill="#000000"/><rect x="278" y="302" width="12" height="12" fill="#000000"/><rect x="290" y="98" width="12" height="12" fill="#F2F2F2"/><rect x="182" y="62" width="12" height="12" fill="#000000"/><rect x="158" y="206" width="12" height="12" fill="#000000"/><rect x="182" y="170" width="12" height="12" fill="#000000"/><rect x="170" y="194" width="12" height="12" fill="#000000"/><rect x="194" y="158" width="12" height="12" fill="#000000"/><rect x="194" y="266" width="12" height="12" fill="#000000"/><rect x="302" y="110" width="12" height="12" fill="#F2F2F2"/><rect x="206" y="62" width="12" height="12" fill="#000000"/><rect x="314" y="206" width="12" height="12" fill="#000000"/><rect x="206" y="170" width="12" height="12" fill="#000000"/><rect x="182" y="86" width="12" height="12" fill="#000000"/><rect x="194" y="74" width="12" height="12" fill="#000000"/><rect x="266" y="266" width="12" height="12" fill="#000000"/><rect x="182" y="194" width="12" height="12" fill="#000000"/><rect x="170" y="218" width="12" height="12" fill="#000000"/><rect x="62" y="182" width="12" height="12" fill="#000000"/><rect x="194" y="290" width="12" height="12" fill="#000000"/><rect x="218" y="218" width="12" height="12" fill="#000000"/><rect x="206" y="86" width="12" height="12" fill="#000000"/><rect x="134" y="254" width="12" height="12" fill="#000000"/><rect x="146" y="242" width="12" height="12" fill="#000000"/><rect x="194" y="98" width="12" height="12" fill="#000000"/><rect x="122" y="266" width="12" height="12" fill="#000000"/><rect x="98" y="302" width="12" height="12" fill="#000000"/><rect x="182" y="218" width="12" height="12" fill="#000000"/><rect x="194" y="206" width="12" height="12" fill="#000000"/><rect x="62" y="206" width="12" height="12" fill="#000000"/><rect x="194" y="314" width="12" height="12" fill="#000000"/><rect x="86" y="278" width="12" height="12" fill="#000000"/><rect x="254" y="194" width="12" height="12" fill="#000000"/><rect x="206" y="182" width="12" height="12" fill="#4D7CFF"/><rect x="206" y="194" width="12" height="12" fill="#4D7CFF"/><rect x="194" y="182" width="12" height="12" fill="#4D7CFF"/><rect x="194" y="194" width="12" height="12" fill="#4D7CFF"/></svg>