<svg xmlns="http://www.w3.org/2000/svg" viewBox="0 0 400 400" width="400" height="400" shape-rendering="crispEdges"><rect width="400" height="400" fill="#000"/><rect x="310.5" y="310.5" width="13" height="13" fill="#F2F2F2"/><rect x="232.5" y="219.5" width="13" height="13" fill="#F2F2F2"/><rect x="154.5" y="167.5" width="13" height="13" fill="#F2F2F2"/><rect x="167.5" y="154.5" width="13" height="13" fill="#F2F2F2"/><rect x="193.5" y="115.5" width="13" height="13" fill="#F2F2F2"/><rect x="76.5" y="76.5" width="13" height="13" fill="#F2F2F2"/><rect x="297.5" y="284.5" width="13" height="13" fill="#F2F2F2"/><rect x="193.5" y="232.5" width="13" height="13" fill="#F2F2F2"/><rect x="76.5" y="193.5" width="13" height="13" fill="#F2F2F2"/><rect x="219.5" y="154.5" width="13" height="13" fill="#F2F2F2"/><rect x="128.5" y="193.5" width="13" height="13" fill="#F2F2F2"/><rect x="102.5" y="76.5" width="13" height="13" fill="#F2F2F2"/><rect x="284.5" y="297.5" width="13" height="13" fill="#F2F2F2"/><rect x="336.5" y="180.5" width="13" height="13" fill="#F2F2F2"/><rect x="271.5" y="115.5" width="13" height="13" fill="#F2F2F2"/><rect x="297.5" y="76.5" width="13" height="13" fill="#4D7CFF"/><rect x="154.5" y="193.5" width="13" height="13" fill="#F2F2F2"/><rect x="297.5" y="193.5" width="13" height="13" fill="#F2F2F2"/><rect x="167.5" y="180.5" width="13" height="13" fill="#F2F2F2"/><rect x="193.5" y="141.5" width="13" height="13" fill="#F2F2F2"/><rect x="76.5" y="102.5" width="13" height="13" fill="#F2F2F2"/><rect x="193.5" y="258.5" width="13" height="13" fill="#F2F2F2"/><rect x="219.5" y="180.5" width="13" height="13" fill="#F2F2F2"/><rect x="245.5" y="141.5" width="13" height="13" fill="#F2F2F2"/><rect x="258.5" y="128.5" width="13" height="13" fill="#F2F2F2"/><rect x="180.5" y="310.5" width="13" height="13" fill="#F2F2F2"/><rect x="284.5" y="89.5" width="13" height="13" fill="#4D7CFF"/><rect x="336.5" y="206.5" width="13" height="13" fill="#F2F2F2"/><rect x="115.5" y="115.5" width="13" height="13" fill="#F2F2F2"/><rect x="297.5" y="102.5" width="13" height="13" fill="#4D7CFF"/><rect x="206.5" y="310.5" width="13" height="13" fill="#F2F2F2"/><rect x="193.5" y="50.5" width="13" height="13" fill="#F2F2F2"/><rect x="167.5" y="206.5" width="13" height="13" fill="#F2F2F2"/><rect x="193.5" y="167.5" width="13" height="13" fill="#F2F2F2"/><rect x="219.5" y="206.5" width="13" height="13" fill="#F2F2F2"/><rect x="63.5" y="180.5" width="13" height="13" fill="#F2F2F2"/><rect x="128.5" y="128.5" width="13" height="13" fill="#F2F2F2"/><rect x="180.5" y="336.5" width="13" height="13" fill="#F2F2F2"/><rect x="206.5" y="219.5" width="13" height="13" fill="#F2F2F2"/><rect x="232.5" y="180.5" width="13" height="13" fill="#F2F2F2"/><rect x="206.5" y="336.5" width="13" height="13" fill="#F2F2F2"/><rect x="193.5" y="76.5" width="13" height="13" fill="#F2F2F2"/><rect x="89.5" y="297.5" width="13" height="13" fill="#F2F2F2"/><rect x="102.5" y="284.5" width="13" height="13" fill="#F2F2F2"/><rect x="167.5" y="232.5" width="13" height="13" fill="#F2F2F2"/><rect x="219.5" y="232.5" width="13" height="13" fill="#F2F2F2"/><rect x="245.5" y="193.5" width="13" height="13" fill="#F2F2F2"/><rect x="63.5" y="206.5" width="13" height="13" fill="#F2F2F2"/><rect x="141.5" y="141.5" width="13" height="13" fill="#F2F2F2"/><rect x="76.5" y="310.5" width="13" height="13" fill="#F2F2F2"/><rect x="310.5" y="180.5" width="13" height="13" fill="#F2F2F2"/><rect x="89.5" y="89.5" width="13" height="13" fill="#F2F2F2"/><rect x="310.5" y="297.5" width="13" height="13" fill="#F2F2F2"/><rect x="232.5" y="206.5" width="13" height="13" fill="#F2F2F2"/><rect x="271.5" y="193.5" width="13" height="13" fill="#F2F2F2"/><rect x="102.5" y="193.5" width="13" height="13" fill="#F2F2F2"/><rect x="193.5" y="102.5" width="13" height="13" fill="#F2F2F2"/><rect x="102.5" y="310.5" width="13" height="13" fill="#F2F2F2"/><rect x="180.5" y="154.5" width="13" height="13" fill="#F2F2F2"/><rect x="297.5" y="310.5" width="13" height="13" fill="#F2F2F2"/><rect x="310.5" y="89.5" width="13" height="13" fill="#4D7CFF"/><rect x="284.5" y="284.5" width="13" height="13" fill="#F2F2F2"/><rect x="310.5" y="206.5" width="13" height="13" fill="#F2F2F2"/><rect x="323.5" y="193.5" width="13" height="13" fill="#F2F2F2"/><rect x="206.5" y="154.5" width="13" height="13" fill="#F2F2F2"/><rect x="102.5" y="102.5" width="13" height="13" fill="#F2F2F2"/><rect x="115.5" y="193.5" width="13" height="13" fill="#F2F2F2"/><rect x="167.5" y="167.5" width="13" height="13" fill="#F2F2F2"/><rect x="180.5" y="63.5" width="13" height="13" fill="#F2F2F2"/><rect x="154.5" y="219.5" width="13" height="13" fill="#F2F2F2"/><rect x="180.5" y="180.5" width="13" height="13" fill="#F2F2F2"/><rect x="219.5" y="167.5" width="13" height="13" fill="#F2F2F2"/><rect x="284.5" y="76.5" width="13" height="13" fill="#4D7CFF"/><rect x="193.5" y="284.5" width="13" height="13" fill="#F2F2F2"/><rect x="141.5" y="193.5" width="13" height="13" fill="#F2F2F2"/><rect x="284.5" y="193.5" width="13" height="13" fill="#F2F2F2"/><rect x="206.5" y="63.5" width="13" height="13" fill="#F2F2F2"/><rect x="336.5" y="193.5" width="13" height="13" fill="#F2F2F2"/><rect x="180.5" y="206.5" width="13" height="13" fill="#F2F2F2"/><rect x="219.5" y="193.5" width="13" height="13" fill="#F2F2F2"/><rect x="50.5" y="193.5" width="13" height="13" fill="#F2F2F2"/><rect x="180.5" y="323.5" width="13" height="13" fill="#F2F2F2"/><rect x="284.5" y="102.5" width="13" height="13" fill="#4D7CFF"/><rect x="193.5" y="310.5" width="13" height="13" fill="#F2F2F2"/><rect x="258.5" y="258.5" width="13" height="13" fill="#F2F2F2"/><rect x="206.5" y="206.5" width="13" height="13" fill="#F2F2F2"/><rect x="232.5" y="167.5" width="13" height="13" fill="#F2F2F2"/><rect x="206.5" y="323.5" width="13" height="13" fill="#F2F2F2"/><rect x="89.5" y="284.5" width="13" height="13" fill="#F2F2F2"/><rect x="180.5" y="232.5" width="13" height="13" fill="#F2F2F2"/><rect x="63.5" y="193.5" width="13" height="13" fill="#F2F2F2"/><rect x="193.5" y="219.5" width="13" height="13" fill="#F2F2F2"/><rect x="76.5" y="180.5" width="13" height="13" fill="#F2F2F2"/><rect x="193.5" y="336.5" width="13" height="13" fill="#F2F2F2"/><rect x="76.5" y="297.5" width="13" height="13" fill="#F2F2F2"/><rect x="89.5" y="76.5" width="13" height="13" fill="#F2F2F2"/><rect x="310.5" y="284.5" width="13" height="13" fill="#F2F2F2"/><rect x="206.5" y="232.5" width="13" height="13" fill="#F2F2F2"/><rect x="232.5" y="193.5" width="13" height="13" fill="#F2F2F2"/><rect x="89.5" y="193.5" width="13" height="13" fill="#F2F2F2"/><rect x="102.5" y="297.5" width="13" height="13" fill="#F2F2F2"/><rect x="154.5" y="180.5" width="13" height="13" fill="#F2F2F2"/><rect x="193.5" y="128.5" width="13" height="13" fill="#F2F2F2"/><rect x="76.5" y="89.5" width="13" height="13" fill="#F2F2F2"/><rect x="297.5" y="297.5" width="13" height="13" fill="#F2F2F2"/><rect x="193.5" y="245.5" width="13" height="13" fill="#F2F2F2"/><rect x="76.5" y="206.5" width="13" height="13" fill="#F2F2F2"/><rect x="310.5" y="76.5" width="13" height="13" fill="#4D7CFF"/><rect x="245.5" y="245.5" width="13" height="13" fill="#F2F2F2"/><rect x="310.5" y="193.5" width="13" height="13" fill="#F2F2F2"/><rect x="323.5" y="180.5" width="13" height="13" fill="#F2F2F2"/><rect x="89.5" y="102.5" width="13" height="13" fill="#F2F2F2"/><rect x="102.5" y="89.5" width="13" height="13" fill="#F2F2F2"/><rect x="284.5" y="310.5" width="13" height="13" fill="#F2F2F2"/><rect x="297.5" y="89.5" width="13" height="13" fill="#4D7CFF"/><rect x="180.5" y="50.5" width="13" height="13" fill="#F2F2F2"/><rect x="154.5" y="206.5" width="13" height="13" fill="#F2F2F2"/><rect x="180.5" y="167.5" width="13" height="13" fill="#F2F2F2"/><rect x="167.5" y="193.5" width="13" height="13" fill="#F2F2F2"/><rect x="193.5" y="154.5" width="13" height="13" fill="#F2F2F2"/><rect x="193.5" y="271.5" width="13" height="13" fill="#F2F2F2"/><rect x="310.5" y="102.5" width="13" height="13" fill="#4D7CFF"/><rect x="206.5" y="50.5" width="13" height="13" fill="#F2F2F2"/><rect x="323.5" y="206.5" width="13" height="13" fill="#F2F2F2"/><rect x="206.5" y="167.5" width="13" height="13" fill="#F2F2F2"/><rect x="180.5" y="76.5" width="13" height="13" fill="#F2F2F2"/><rect x="193.5" y="63.5" width="13" height="13" fill="#F2F2F2"/><rect x="271.5" y="271.5" width="13" height="13" fill="#F2F2F2"/><rect x="180.5" y="193.5" width="13" height="13" fill="#F2F2F2"/><rect x="167.5" y="219.5" width="13" height="13" fill="#F2F2F2"/><rect x="50.5" y="180.5" width="13" height="13" fill="#F2F2F2"/><rect x="193.5" y="297.5" width="13" height="13" fill="#F2F2F2"/><rect x="219.5" y="219.5" width="13" height="13" fill="#F2F2F2"/><rect x="206.5" y="76.5" width="13" height="13" fill="#F2F2F2"/><rect x="128.5" y="258.5" width="13" height="13" fill="#F2F2F2"/><rect x="141.5" y="245.5" width="13" height="13" fill="#F2F2F2"/><rect x="193.5" y="89.5" width="13" height="13" fill="#F2F2F2"/><rect x="115.5" y="271.5" width="13" height="13" fill="#F2F2F2"/><rect x="89.5" y="310.5" width="13" height="13" fill="#F2F2F2"/><rect x="180.5" y="219.5" width="13" height="13" fill="#F2F2F2"/><rect x="193.5" y="206.5" width="13" height="13" fill="#F2F2F2"/><rect x="50.5" y="206.5" width="13" height="13" fill="#F2F2F2"/><rect x="193.5" y="323.5" width="13" height="13" fill="#F2F2F2"/><rect x="76.5" y="284.5" width="13" height="13" fill="#F2F2F2"/><rect x="258.5" y="193.5" width="13" height="13" fill="#F2F2F2"/><rect x="206.5" y="180.5" width="13" height="13" fill="#000000"/><rect x="206.5" y="193.5" width="13" height="13" fill="#000000"/><rect x="193.5" y="180.5" width="13" height="13" fill="#000000"/><rect x="193.5" y="193.5" width="13" height="13" fill="#000000"/></svg>