<svg xmlns="http://www.w3.org/2000/svg" viewBox="0 0 400 400" width="400" height="400" shape-rendering="crispEdges"><rect width="400" height="400" fill="#000"/><rect x="46.0" y="200.0" width="14" height="14" fill="#F2F2F2"/><rect x="46.0" y="214.0" width="14" height="14" fill="#F2F2F2"/><rect x="46.0" y="228.0" width="14" height="14" fill="#F2F2F2"/><rect x="46.0" y="242.0" width="14" height="14" fill="#F2F2F2"/><rect x="46.0" y="256.0" width="14" height="14" fill="#F2F2F2"/><rect x="46.0" y="270.0" width="14" height="14" fill="#F2F2F2"/><rect x="60.0" y="200.0" width="14" height="14" fill="#F2F2F2"/><rect x="60.0" y="214.0" width="14" height="14" fill="#F2F2F2"/><rect x="60.0" y="228.0" width="14" height="14" fill="#F2F2F2"/><rect x="60.0" y="242.0" width="14" height="14" fill="#F2F2F2"/><rect x="60.0" y="256.0" width="14" height="14" fill="#F2F2F2"/><rect x="60.0" y="270.0" width="14" height="14" fill="#F2F2F2"/><rect x="74.0" y="200.0" width="14" height="14" fill="#F2F2F2"/><rect x="74.0" y="214.0" width="14" height="14" fill="#F2F2F2"/><rect x="74.0" y="228.0" width="14" height="14" fill="#F2F2F2"/><rect x="74.0" y="242.0" width="14" height="14" fill="#F2F2F2"/><rect x="74.0" y="256.0" width="14" height="14" fill="#F2F2F2"/><rect x="74.0" y="270.0" width="14" height="14" fill="#F2F2F2"/><rect x="88.0" y="200.0" width="14" height="14" fill="#F2F2F2"/><rect x="88.0" y="214.0" width="14" height="14" fill="#F2F2F2"/><rect x="88.0" y="228.0" width="14" height="14" fill="#F2F2F2"/><rect x="88.0" y="242.0" width="14" height="14" fill="#F2F2F2"/><rect x="88.0" y="256.0" width="14" height="14" fill="#F2F2F2"/><rect x="88.0" y="270.0" width="14" height="14" fill="#F2F2F2"/><rect x="102.0" y="200.0" width="14" height="14" fill="#F2F2F2"/><rect x="102.0" y="214.0" width="14" height="14" fill="#F2F2F2"/><rect x="102.0" y="228.0" width="14" height="14" fill="#F2F2F2"/><rect x="102.0" y="242.0" width="14" height="14" fill="#F2F2F2"/><rect x="102.0" y="256.0" width="14" height="14" fill="#F2F2F2"/><rect x="102.0" y="270.0" width="14" height="14" fill="#F2F2F2"/><rect x="116.0" y="200.0" width="14" height="14" fill="#F2F2F2"/><rect x="116.0" y="214.0" width="14" height="14" fill="#F2F2F2"/><rect x="116.0" y="228.0" width="14" height="14" fill="#F2F2F2"/><rect x="116.0" y="242.0" width="14" height="14" fill="#F2F2F2"/><rect x="116.0" y="256.0" width="14" height="14" fill="#F2F2F2"/><rect x="116.0" y="270.0" width="14" height="14" fill="#F2F2F2"/><rect x="270.0" y="60.0" width="14" height="14" fill="#4D7CFF"/><rect x="270.0" y="74.0" width="14" height="14" fill="#4D7CFF"/><rect x="270.0" y="88.0" width="14" height="14" fill="#4D7CFF"/><rect x="270.0" y="102.0" width="14" height="14" fill="#4D7CFF"/><rect x="270.0" y="116.0" width="14" height="14" fill="#4D7CFF"/><rect x="270.0" y="130.0" width="14" height="14" fill="#4D7CFF"/><rect x="284.0" y="60.0" width="14" height="14" fill="#4D7CFF"/><rect x="284.0" y="74.0" width="14" height="14" fill="#4D7CFF"/><rect x="284.0" y="88.0" width="14" height="14" fill="#4D7CFF"/><rect x="284.0" y="102.0" width="14" height="14" fill="#4D7CFF"/><rect x="284.0" y="116.0" width="14" height="14" fill="#4D7CFF"/><rect x="284.0" y="130.0" width="14" height="14" fill="#4D7CFF"/><rect x="298.0" y="60.0" width="14" height="14" fill="#4D7CFF"/><rect x="298.0" y="74.0" width="14" height="14" fill="#4D7CFF"/><rect x="298.0" y="88.0" width="14" height="14" fill="#4D7CFF"/><rect x="298.0" y="102.0" width="14" height="14" fill="#4D7CFF"/><rect x="298.0" y="116.0" width="14" height="14" fill="#4D7CFF"/><rect x="298.0" y="130.0" width="14" height="14" fill="#4D7CFF"/><rect x="312.0" y="60.0" width="14" height="14" fill="#4D7CFF"/><rect x="312.0" y="74.0" width="14" height="14" fill="#4D7CFF"/><rect x="312.0" y="88.0" width="14" height="14" fill="#4D7CFF"/><rect x="312.0" y="102.0" width="14" height="14" fill="#4D7CFF"/><rect x="312.0" y="116.0" width="14" height="14" fill="#4D7CFF"/><rect x="312.0" y="130.0" width="14" height="14" fill="#4D7CFF"/><rect x="326.0" y="60.0" width="14" height="14" fill="#4D7CFF"/><rect x="326.0" y="74.0" width="14" height="14" fill="#4D7CFF"/><rect x="326.0" y="88.0" width="14" height="14" fill="#4D7CFF"/><rect x="326.0" y="102.0" width="14" height="14" fill="#4D7CFF"/><rect x="326.0" y="116.0" width="14" height="14" fill="#4D7CFF"/><rect x="326.0" y="130.0" width="14" height="14" fill="#4D7CFF"/><rect x="340.0" y="60.0" width="14" height="14" fill="#4D7CFF"/><rect x="340.0" y="74.0" width="14" height="14" fill="#4D7CFF"/><rect x="340.0" y="88.0" width="14" height="14" fill="#4D7CFF"/><rect x="340.0" y="102.0" width="14" height="14" fill="#4D7CFF"/><rect x="340.0" y="116.0" width="14" height="14" fill="#4D7CFF"/><rect x="340.0" y="130.0" width="14" height="14" fill="#4D7CFF"/><rect x="130.0" y="228.0" width="14" height="14" fill="#F2F2F2"/><rect x="144.0" y="228.0" width="14" height="14" fill="#F2F2F2"/><rect x="158.0" y="228.0" width="14" height="14" fill="#F2F2F2"/><rect x="172.0" y="228.0" width="14" height="14" fill="#F2F2F2"/><rect x="172.0" y="214.0" width="14" height="14" fill="#F2F2F2"/><rect x="172.0" y="200.0" width="14" height="14" fill="#F2F2F2"/><rect x="186.0" y="200.0" width="14" height="14" fill="#F2F2F2"/><rect x="200.0" y="200.0" width="14" height="14" fill="#F2F2F2"/><rect x="200.0" y="186.0" width="14" height="14" fill="#F2F2F2"/><rect x="200.0" y="172.0" width="14" height="14" fill="#F2F2F2"/><rect x="214.0" y="172.0" width="14" height="14" fill="#F2F2F2"/><rect x="228.0" y="172.0" width="14" height="14" fill="#F2F2F2"/><rect x="228.0" y="158.0" width="14" height="14" fill="#F2F2F2"/><rect x="228.0" y="144.0" width="14" height="14" fill="#F2F2F2"/><rect x="242.0" y="144.0" width="14" height="14" fill="#F2F2F2"/><rect x="256.0" y="144.0" width="14" height="14" fill="#F2F2F2"/><rect x="270.0" y="144.0" width="14" height="14" fill="#F2F2F2"/><rect x="74.0" y="88.0" width="14" height="14" fill="#3A3A3A"/><rect x="88.0" y="88.0" width="14" height="14" fill="#3A3A3A"/><rect x="88.0" y="74.0" width="14" height="14" fill="#3A3A3A"/><rect x="102.0" y="102.0" width="14" height="14" fill="#3A3A3A"/><rect x="312.0" y="312.0" width="14" height="14" fill="#3A3A3A"/><rect x="298.0" y="312.0" width="14" height="14" fill="#3A3A3A"/><rect x="312.0" y="298.0" width="14" height="14" fill="#3A3A3A"/><rect x="326.0" y="326.0" width="14" height="14" fill="#3A3A3A"/><rect x="284.0" y="256.0" width="14" height="14" fill="#3A3A3A"/><rect x="158.0" y="326.0" width="14" height="14" fill="#3A3A3A"/></svg>